# xmcd
#
# Track frame offsets:
#	150
#	10443
#	22625
#	36100
#	49426
#	62412
#	74048
#	83918
#	96873
#	110412
#	123319
#	134961
#	146835
#	157738
#	169767
#	183062
#	195697
#	207660
#	220301
#	233990
#	246664
#	256314
#	267144
#	278497
#	290125
#	303928
#
# Disc length: 4220 seconds
#
# Revision: 0
# Processed by: cddbd v1.5.1PL2 Copyright (c) Steve Scherf et al.
# Submitted via: EasyCDDAExtractor 9.1.3.1
#
DISCID=8c107a1a
DTITLE=Ralph Willis - Shake That Thing! (East Coast Blues, 1935-53) - Disc C (
DTITLE=1944-50)
DYEAR=2006
DGENRE=Blues
TTITLE0=Worried Blues
TTITLE1=Comb Your Kitty Kat
TTITLE2=Just A Note
TTITLE3=Church Bells
TTITLE4=Trouble Don't Last
TTITLE5=Shake That Thing
TTITLE6=So Many Days
TTITLE7=That Gal's No Good
TTITLE8=New Goin' Down Slow
TTITLE9=Goin' To Chattanooga
TTITLE10=Steel Mill Blues
TTITLE11=I Will Never Love Again
TTITLE12=Goin' To Virginia
TTITLE13=Boar Hog Blues
TTITLE14=Eloise
TTITLE15=I've Been A Fool
TTITLE16=Christmas Blues
TTITLE17=Amen Blues
TTITLE18=Neighborhood Blues
TTITLE19=Mama, Mama Blues
TTITLE20=Tell Me Pretty Baby
TTITLE21=I'm Gonna Rock
TTITLE22=Cool That Thing
TTITLE23=Sportin' Life
TTITLE24=Everyday I Weep And Moan
TTITLE25=Somebody Is Got To Go
EXTD=
EXTT0=
EXTT1=
EXTT2=
EXTT3=
EXTT4=
EXTT5=
EXTT6=
EXTT7=
EXTT8=
EXTT9=
EXTT10=
EXTT11=
EXTT12=
EXTT13=
EXTT14=
EXTT15=
EXTT16=
EXTT17=
EXTT18=
EXTT19=
EXTT20=
EXTT21=
EXTT22=
EXTT23=
EXTT24=
EXTT25=
PLAYORDER=
